<svg version="1.1" viewBox="0 0 16 16" xmlns="http://www.w3.org/2000/svg" xmlns:xlink="http://www.w3.org/1999/xlink"><g><path d="M15.5249,16.0001h-15c-0.17334,0 -0.333984,-0.0898438 -0.425293,-0.237305c-0.0913086,-0.147461 -0.0996094,-0.331055 -0.0219727,-0.486328l7.5,-15c0.0849195,-0.168863 0.265936,-0.276285 0.447001,-0.276367c0.18124,-8.25e-05 0.362528,0.107339 0.447531,0.276367l7.5,15c0.0776367,0.155273 0.0693359,0.338867 -0.0219727,0.486328c-0.0913086,0.147461 -0.251953,0.237305 -0.425293,0.237305Zm-14.1909,-1h13.3818l-6.69092,-13.3818l-6.69092,13.3818Z" transform="translate(-0.0249024, -8.25e-05)" id="id_101" style="fill: rgb(235, 38, 58);"></path><path d="M0,0h1v5h-1Z" transform="translate(7.5, 6)" id="id_102" style="fill: rgb(235, 40, 59);"></path><path d="M0,0h1v1h-1Z" transform="translate(7.5, 12)" id="id_103" style="fill: rgb(232, 37, 57);"></path></g></svg>